<svg width="1440" height="779" xmlns="http://www.w3.org/2000/svg"><g><path d="M-74.130256511271,-25.896400082856417L-95.8749885018915,98.14245893619955L59.009847147390246,101.93706133402884Z" fill="#ffffff" stroke="#ffffff"></path><path d="M-74.130256511271,-25.896400082856417L59.009847147390246,101.93706133402884L118.280677087605,-97.45063385926187Z" fill="#fefefe" stroke="#fefefe"></path><path d="M118.280677087605,-97.45063385926187L59.009847147390246,101.93706133402884L210.5944895837456,124.9122185446322Z" fill="#f9f9f9" stroke="#f9f9f9"></path><path d="M118.280677087605,-97.45063385926187L210.5944895837456,124.9122185446322L261.2284258939326,-120.94066539779305Z" fill="#f5f5f5" stroke="#f5f5f5"></path><path d="M261.2284258939326,-120.94066539779305L210.5944895837456,124.9122185446322L318.97690292447805,-91.8879559636116Z" fill="#f0f0f0" stroke="#f0f0f0"></path><path d="M261.2284258939326,-120.94066539779305L318.97690292447805,-91.8879559636116L541.5629365760833,-67.56959119811654Z" fill="#e8e8e8" stroke="#e8e8e8"></path><path d="M261.2284258939326,-120.94066539779305L541.5629365760833,-67.56959119811654L718.9522885624319,-103.12814301811159Z" fill="#dbdbdb" stroke="#dbdbdb"></path><path d="M261.2284258939326,-120.94066539779305L718.9522885624319,-103.12814301811159L1068.5146818682551,-106.70927485451102Z" fill="#c6c6c6" stroke="#c6c6c6"></path><path d="M261.2284258939326,-120.94066539779305L1068.5146818682551,-106.70927485451102L1525.6475305370986,-107.63136422261596Z" fill="#aaaaaa" stroke="#aaaaaa"></path><path d="M318.97690292447805,-91.8879559636116L210.5944895837456,124.9122185446322L409.38082303851843,129.24421878531575Z" fill="#ededed" stroke="#ededed"></path><path d="M318.97690292447805,-91.8879559636116L409.38082303851843,129.24421878531575L541.5629365760833,-67.56959119811654Z" fill="#e3e3e3" stroke="#e3e3e3"></path><path d="M541.5629365760833,-67.56959119811654L409.38082303851843,129.24421878531575L536.6512695606798,125.59394370764494Z" fill="#dcdcdc" stroke="#dcdcdc"></path><path d="M541.5629365760833,-67.56959119811654L536.6512695606798,125.59394370764494L716.8019544426352,18.204318461939692Z" fill="#d0d0d0" stroke="#d0d0d0"></path><path d="M541.5629365760833,-67.56959119811654L716.8019544426352,18.204318461939692L718.9522885624319,-103.12814301811159Z" fill="#c9c9c9" stroke="#c9c9c9"></path><path d="M718.9522885624319,-103.12814301811159L716.8019544426352,18.204318461939692L818.9427083451301,-21.488773031160235Z" fill="#bfbfbf" stroke="#bfbfbf"></path><path d="M718.9522885624319,-103.12814301811159L818.9427083451301,-21.488773031160235L1068.5146818682551,-106.70927485451102Z" fill="#b2b2b2" stroke="#b2b2b2"></path><path d="M818.9427083451301,-21.488773031160235L716.8019544426352,18.204318461939692L872.935636555776,115.4480179399252Z" fill="#b9b9b9" stroke="#b9b9b9"></path><path d="M818.9427083451301,-21.488773031160235L872.935636555776,115.4480179399252L1031.363124763593,40.24721385911107Z" fill="#aeaeae" stroke="#aeaeae"></path><path d="M818.9427083451301,-21.488773031160235L1031.363124763593,40.24721385911107L1031.8309034965932,-60.641593392938375Z" fill="#a9a9a9" stroke="#a9a9a9"></path><path d="M818.9427083451301,-21.488773031160235L1031.8309034965932,-60.641593392938375L1068.5146818682551,-106.70927485451102Z" fill="#a7a7a7" stroke="#a7a7a7"></path><path d="M1031.8309034965932,-60.641593392938375L1031.363124763593,40.24721385911107L1148.2380014844239,28.461047569289804Z" fill="#999999" stroke="#999999"></path><path d="M1031.8309034965932,-60.641593392938375L1148.2380014844239,28.461047569289804L1068.5146818682551,-106.70927485451102Z" fill="#979797" stroke="#979797"></path><path d="M1068.5146818682551,-106.70927485451102L1148.2380014844239,28.461047569289804L1315.4031212534755,-37.31564166024327Z" fill="#8c8c8c" stroke="#8c8c8c"></path><path d="M1068.5146818682551,-106.70927485451102L1315.4031212534755,-37.31564166024327L1525.6475305370986,-107.63136422261596Z" fill="#808080" stroke="#808080"></path><path d="M1315.4031212534755,-37.31564166024327L1148.2380014844239,28.461047569289804L1314.30638294667,106.69147493317723Z" fill="#828282" stroke="#828282"></path><path d="M1315.4031212534755,-37.31564166024327L1314.30638294667,106.69147493317723L1405.2184025477618,51.01789494976401Z" fill="#808080" stroke="#808080"></path><path d="M1315.4031212534755,-37.31564166024327L1405.2184025477618,51.01789494976401L1476.380761899054,-72.08762272261083Z" fill="#808080" stroke="#808080"></path><path d="M1315.4031212534755,-37.31564166024327L1476.380761899054,-72.08762272261083L1525.6475305370986,-107.63136422261596Z" fill="#808080" stroke="#808080"></path><path d="M1476.380761899054,-72.08762272261083L1405.2184025477618,51.01789494976401L1582.0360789261758,113.9911343716085Z" fill="#808080" stroke="#808080"></path><path d="M1476.380761899054,-72.08762272261083L1582.0360789261758,113.9911343716085L1525.6475305370986,-107.63136422261596Z" fill="#808080" stroke="#808080"></path><path d="M-95.8749885018915,98.14245893619955L-131.35118474252522,515.312295332551L-58.98774728178978,397.63580496422946Z" fill="#dcdcdc" stroke="#dcdcdc"></path><path d="M-95.8749885018915,98.14245893619955L-58.98774728178978,397.63580496422946L-23.29633690416813,270.4954076372087Z" fill="#f1f1f1" stroke="#f1f1f1"></path><path d="M-95.8749885018915,98.14245893619955L-23.29633690416813,270.4954076372087L59.009847147390246,101.93706133402884Z" fill="#ffffff" stroke="#ffffff"></path><path d="M59.009847147390246,101.93706133402884L-23.29633690416813,270.4954076372087L65.03875762224197,244.7457864973694Z" fill="#f8f8f8" stroke="#f8f8f8"></path><path d="M59.009847147390246,101.93706133402884L65.03875762224197,244.7457864973694L185.86310774087906,177.5125483609736Z" fill="#fafafa" stroke="#fafafa"></path><path d="M59.009847147390246,101.93706133402884L185.86310774087906,177.5125483609736L210.5944895837456,124.9122185446322Z" fill="#f8f8f8" stroke="#f8f8f8"></path><path d="M210.5944895837456,124.9122185446322L185.86310774087906,177.5125483609736L345.22424921393394,200.47053242102265Z" fill="#f1f1f1" stroke="#f1f1f1"></path><path d="M210.5944895837456,124.9122185446322L345.22424921393394,200.47053242102265L409.38082303851843,129.24421878531575Z" fill="#ececec" stroke="#ececec"></path><path d="M409.38082303851843,129.24421878531575L345.22424921393394,200.47053242102265L485.04886094480753,275.9747188165784Z" fill="#dfdfdf" stroke="#dfdfdf"></path><path d="M409.38082303851843,129.24421878531575L485.04886094480753,275.9747188165784L536.6512695606798,125.59394370764494Z" fill="#dedede" stroke="#dedede"></path><path d="M536.6512695606798,125.59394370764494L485.04886094480753,275.9747188165784L668.3976268675178,203.28531702049077Z" fill="#cfcfcf" stroke="#cfcfcf"></path><path d="M536.6512695606798,125.59394370764494L668.3976268675178,203.28531702049077L716.8019544426352,18.204318461939692Z" fill="#cbcbcb" stroke="#cbcbcb"></path><path d="M716.8019544426352,18.204318461939692L668.3976268675178,203.28531702049077L872.935636555776,115.4480179399252Z" fill="#bebebe" stroke="#bebebe"></path><path d="M872.935636555776,115.4480179399252L668.3976268675178,203.28531702049077L857.7818903513253,209.68615011312068Z" fill="#b9b9b9" stroke="#b9b9b9"></path><path d="M872.935636555776,115.4480179399252L857.7818903513253,209.68615011312068L990.9465440455824,237.2326272726059Z" fill="#acacac" stroke="#acacac"></path><path d="M872.935636555776,115.4480179399252L990.9465440455824,237.2326272726059L1031.363124763593,40.24721385911107Z" fill="#a8a8a8" stroke="#a8a8a8"></path><path d="M1031.363124763593,40.24721385911107L990.9465440455824,237.2326272726059L1091.3750759605318,206.5931534115225Z" fill="#9e9e9e" stroke="#9e9e9e"></path><path d="M1031.363124763593,40.24721385911107L1091.3750759605318,206.5931534115225L1148.2380014844239,28.461047569289804Z" fill="#969696" stroke="#969696"></path><path d="M1148.2380014844239,28.461047569289804L1091.3750759605318,206.5931534115225L1280.4119578097016,227.535509057343Z" fill="#8c8c8c" stroke="#8c8c8c"></path><path d="M1148.2380014844239,28.461047569289804L1280.4119578097016,227.535509057343L1314.30638294667,106.69147493317723Z" fill="#838383" stroke="#838383"></path><path d="M1314.30638294667,106.69147493317723L1280.4119578097016,227.535509057343L1430.3033722378314,179.30211575701833Z" fill="#808080" stroke="#808080"></path><path d="M1314.30638294667,106.69147493317723L1430.3033722378314,179.30211575701833L1405.2184025477618,51.01789494976401Z" fill="#808080" stroke="#808080"></path><path d="M1405.2184025477618,51.01789494976401L1430.3033722378314,179.30211575701833L1582.0360789261758,113.9911343716085Z" fill="#808080" stroke="#808080"></path><path d="M1582.0360789261758,113.9911343716085L1430.3033722378314,179.30211575701833L1606.9227859005332,230.79340397380292Z" fill="#7f7f7f" stroke="#7f7f7f"></path><path d="M-23.29633690416813,270.4954076372087L-58.98774728178978,397.63580496422946L74.64867138303816,333.93895357847214Z" fill="#dcdcdc" stroke="#dcdcdc"></path><path d="M-23.29633690416813,270.4954076372087L74.64867138303816,333.93895357847214L65.03875762224197,244.7457864973694Z" fill="#e8e8e8" stroke="#e8e8e8"></path><path d="M65.03875762224197,244.7457864973694L74.64867138303816,333.93895357847214L166.64506724104285,366.34088784456253Z" fill="#dddddd" stroke="#dddddd"></path><path d="M65.03875762224197,244.7457864973694L166.64506724104285,366.34088784456253L185.86310774087906,177.5125483609736Z" fill="#e9e9e9" stroke="#e9e9e9"></path><path d="M185.86310774087906,177.5125483609736L166.64506724104285,366.34088784456253L345.22424921393394,200.47053242102265Z" fill="#e6e6e6" stroke="#e6e6e6"></path><path d="M345.22424921393394,200.47053242102265L166.64506724104285,366.34088784456253L395.0392691977322,323.10383638367057Z" fill="#d5d5d5" stroke="#d5d5d5"></path><path d="M345.22424921393394,200.47053242102265L395.0392691977322,323.10383638367057L485.04886094480753,275.9747188165784Z" fill="#d4d4d4" stroke="#d4d4d4"></path><path d="M485.04886094480753,275.9747188165784L395.0392691977322,323.10383638367057L582.7836589235812,358.5754615813494Z" fill="#bebebe" stroke="#bebebe"></path><path d="M485.04886094480753,275.9747188165784L582.7836589235812,358.5754615813494L668.3976268675178,203.28531702049077Z" fill="#bebebe" stroke="#bebebe"></path><path d="M668.3976268675178,203.28531702049077L582.7836589235812,358.5754615813494L701.8452710844576,367.52949259243906Z" fill="#adadad" stroke="#adadad"></path><path d="M668.3976268675178,203.28531702049077L701.8452710844576,367.52949259243906L857.7818903513253,209.68615011312068Z" fill="#b1b1b1" stroke="#b1b1b1"></path><path d="M857.7818903513253,209.68615011312068L701.8452710844576,367.52949259243906L777.0567455794662,422.79765252023935Z" fill="#999999" stroke="#999999"></path><path d="M857.7818903513253,209.68615011312068L777.0567455794662,422.79765252023935L995.0439501274377,405.76303048990667Z" fill="#8b8b8b" stroke="#8b8b8b"></path><path d="M857.7818903513253,209.68615011312068L995.0439501274377,405.76303048990667L990.9465440455824,237.2326272726059Z" fill="#949494" stroke="#949494"></path><path d="M990.9465440455824,237.2326272726059L995.0439501274377,405.76303048990667L1091.3750759605318,206.5931534115225Z" fill="#8a8a8a" stroke="#8a8a8a"></path><path d="M1091.3750759605318,206.5931534115225L995.0439501274377,405.76303048990667L1176.2043648585677,403.9320420473814Z" fill="#737373" stroke="#737373"></path><path d="M1091.3750759605318,206.5931534115225L1176.2043648585677,403.9320420473814L1236.0310376621783,374.8299375269562Z" fill="#6b6b6b" stroke="#6b6b6b"></path><path d="M1091.3750759605318,206.5931534115225L1236.0310376621783,374.8299375269562L1280.4119578097016,227.535509057343Z" fill="#777777" stroke="#777777"></path><path d="M1280.4119578097016,227.535509057343L1236.0310376621783,374.8299375269562L1439.1898471489549,344.4056660402566Z" fill="#626262" stroke="#626262"></path><path d="M1280.4119578097016,227.535509057343L1439.1898471489549,344.4056660402566L1430.3033722378314,179.30211575701833Z" fill="#727272" stroke="#727272"></path><path d="M1430.3033722378314,179.30211575701833L1439.1898471489549,344.4056660402566L1606.9227859005332,230.79340397380292Z" fill="#727272" stroke="#727272"></path><path d="M1606.9227859005332,230.79340397380292L1439.1898471489549,344.4056660402566L1611.5565679874271,315.9262956585735Z" fill="#676767" stroke="#676767"></path><path d="M-58.98774728178978,397.63580496422946L-131.35118474252522,515.312295332551L45.17611227929592,481.07960362918675Z" fill="#bdbdbd" stroke="#bdbdbd"></path><path d="M-58.98774728178978,397.63580496422946L45.17611227929592,481.07960362918675L74.64867138303816,333.93895357847214Z" fill="#cacaca" stroke="#cacaca"></path><path d="M74.64867138303816,333.93895357847214L45.17611227929592,481.07960362918675L166.64506724104285,366.34088784456253Z" fill="#c9c9c9" stroke="#c9c9c9"></path><path d="M166.64506724104285,366.34088784456253L45.17611227929592,481.07960362918675L215.6851135008037,570.7912285532802Z" fill="#b5b5b5" stroke="#b5b5b5"></path><path d="M166.64506724104285,366.34088784456253L215.6851135008037,570.7912285532802L368.3596634399146,519.2041047289968Z" fill="#aaaaaa" stroke="#aaaaaa"></path><path d="M166.64506724104285,366.34088784456253L368.3596634399146,519.2041047289968L395.0392691977322,323.10383638367057Z" fill="#b9b9b9" stroke="#b9b9b9"></path><path d="M395.0392691977322,323.10383638367057L368.3596634399146,519.2041047289968L582.7836589235812,358.5754615813494Z" fill="#aeaeae" stroke="#aeaeae"></path><path d="M582.7836589235812,358.5754615813494L368.3596634399146,519.2041047289968L569.1196444071829,571.399183832109Z" fill="#949494" stroke="#949494"></path><path d="M582.7836589235812,358.5754615813494L569.1196444071829,571.399183832109L631.6006444115192,472.7139956038445Z" fill="#8d8d8d" stroke="#8d8d8d"></path><path d="M582.7836589235812,358.5754615813494L631.6006444115192,472.7139956038445L701.8452710844576,367.52949259243906Z" fill="#989898" stroke="#989898"></path><path d="M701.8452710844576,367.52949259243906L631.6006444115192,472.7139956038445L777.0567455794662,422.79765252023935Z" fill="#8c8c8c" stroke="#8c8c8c"></path><path d="M777.0567455794662,422.79765252023935L631.6006444115192,472.7139956038445L818.3569695241749,578.3989127911627Z" fill="#787878" stroke="#787878"></path><path d="M777.0567455794662,422.79765252023935L818.3569695241749,578.3989127911627L997.2182760480791,466.4520843978971Z" fill="#6b6b6b" stroke="#6b6b6b"></path><path d="M777.0567455794662,422.79765252023935L997.2182760480791,466.4520843978971L995.0439501274377,405.76303048990667Z" fill="#727272" stroke="#727272"></path><path d="M995.0439501274377,405.76303048990667L997.2182760480791,466.4520843978971L1176.2043648585677,403.9320420473814Z" fill="#626262" stroke="#626262"></path><path d="M1176.2043648585677,403.9320420473814L997.2182760480791,466.4520843978971L1100.803930386901,566.539493361488Z" fill="#515151" stroke="#515151"></path><path d="M1176.2043648585677,403.9320420473814L1100.803930386901,566.539493361488L1332.731874184683,557.7806181740016Z" fill="#3c3c3c" stroke="#3c3c3c"></path><path d="M1176.2043648585677,403.9320420473814L1332.731874184683,557.7806181740016L1236.0310376621783,374.8299375269562Z" fill="#454545" stroke="#454545"></path><path d="M1236.0310376621783,374.8299375269562L1332.731874184683,557.7806181740016L1439.1898471489549,344.4056660402566Z" fill="#464646" stroke="#464646"></path><path d="M1439.1898471489549,344.4056660402566L1332.731874184683,557.7806181740016L1398.3782973513007,572.4713107198477Z" fill="#383838" stroke="#383838"></path><path d="M1439.1898471489549,344.4056660402566L1398.3782973513007,572.4713107198477L1525.3112958278507,501.8190960679203Z" fill="#3c3c3c" stroke="#3c3c3c"></path><path d="M1439.1898471489549,344.4056660402566L1525.3112958278507,501.8190960679203L1611.5565679874271,315.9262956585735Z" fill="#505050" stroke="#505050"></path><path d="M1611.5565679874271,315.9262956585735L1525.3112958278507,501.8190960679203L1600.4408099502325,687.6733454782516Z" fill="#353535" stroke="#353535"></path><path d="M1611.5565679874271,315.9262956585735L1600.4408099502325,687.6733454782516L1620.7247032038867,948.1852316390723Z" fill="#131313" stroke="#131313"></path><path d="M-131.35118474252522,515.312295332551L-116.87616049312055,916.6681554727256L-82.39049828611314,771.8355899769813Z" fill="#8b8b8b" stroke="#8b8b8b"></path><path d="M-131.35118474252522,515.312295332551L-82.39049828611314,771.8355899769813L-61.32087606936693,662.9663254413754Z" fill="#929292" stroke="#929292"></path><path d="M-131.35118474252522,515.312295332551L-61.32087606936693,662.9663254413754L45.17611227929592,481.07960362918675Z" fill="#a6a6a6" stroke="#a6a6a6"></path><path d="M45.17611227929592,481.07960362918675L-61.32087606936693,662.9663254413754L43.900463534519076,709.5982335414737Z" fill="#949494" stroke="#949494"></path><path d="M45.17611227929592,481.07960362918675L43.900463534519076,709.5982335414737L215.6851135008037,570.7912285532802Z" fill="#979797" stroke="#979797"></path><path d="M215.6851135008037,570.7912285532802L43.900463534519076,709.5982335414737L278.26025831513107,719.3041178584099Z" fill="#888888" stroke="#888888"></path><path d="M215.6851135008037,570.7912285532802L278.26025831513107,719.3041178584099L368.3596634399146,519.2041047289968Z" fill="#868686" stroke="#868686"></path><path d="M368.3596634399146,519.2041047289968L278.26025831513107,719.3041178584099L423.75265253707767,666.2901692837477Z" fill="#7d7d7d" stroke="#7d7d7d"></path><path d="M368.3596634399146,519.2041047289968L423.75265253707767,666.2901692837477L511.5146859548986,624.780449224636Z" fill="#7a7a7a" stroke="#7a7a7a"></path><path d="M368.3596634399146,519.2041047289968L511.5146859548986,624.780449224636L569.1196444071829,571.399183832109Z" fill="#7f7f7f" stroke="#7f7f7f"></path><path d="M569.1196444071829,571.399183832109L511.5146859548986,624.780449224636L651.7534189671278,684.0120839327574Z" fill="#676767" stroke="#676767"></path><path d="M569.1196444071829,571.399183832109L651.7534189671278,684.0120839327574L631.6006444115192,472.7139956038445Z" fill="#6d6d6d" stroke="#6d6d6d"></path><path d="M631.6006444115192,472.7139956038445L651.7534189671278,684.0120839327574L818.3569695241749,578.3989127911627Z" fill="#636363" stroke="#636363"></path><path d="M818.3569695241749,578.3989127911627L651.7534189671278,684.0120839327574L846.3090669550002,655.0222072005272Z" fill="#505050" stroke="#505050"></path><path d="M818.3569695241749,578.3989127911627L846.3090669550002,655.0222072005272L968.0251163151115,647.8936940152198Z" fill="#464646" stroke="#464646"></path><path d="M818.3569695241749,578.3989127911627L968.0251163151115,647.8936940152198L997.2182760480791,466.4520843978971Z" fill="#505050" stroke="#505050"></path><path d="M997.2182760480791,466.4520843978971L968.0251163151115,647.8936940152198L1100.803930386901,566.539493361488Z" fill="#454545" stroke="#454545"></path><path d="M1100.803930386901,566.539493361488L968.0251163151115,647.8936940152198L1174.7879683133215,710.6373794004321Z" fill="#2b2b2b" stroke="#2b2b2b"></path><path d="M1100.803930386901,566.539493361488L1174.7879683133215,710.6373794004321L1241.989058693871,711.8386659119278Z" fill="#1e1e1e" stroke="#1e1e1e"></path><path d="M1100.803930386901,566.539493361488L1241.989058693871,711.8386659119278L1332.731874184683,557.7806181740016Z" fill="#1c1c1c" stroke="#1c1c1c"></path><path d="M1332.731874184683,557.7806181740016L1241.989058693871,711.8386659119278L1398.3782973513007,572.4713107198477Z" fill="#161616" stroke="#161616"></path><path d="M1398.3782973513007,572.4713107198477L1241.989058693871,711.8386659119278L1477.9174765851349,669.6607439126819Z" fill="#131313" stroke="#131313"></path><path d="M1398.3782973513007,572.4713107198477L1477.9174765851349,669.6607439126819L1525.3112958278507,501.8190960679203Z" fill="#1e1e1e" stroke="#1e1e1e"></path><path d="M1525.3112958278507,501.8190960679203L1477.9174765851349,669.6607439126819L1600.4408099502325,687.6733454782516Z" fill="#151515" stroke="#151515"></path><path d="M-61.32087606936693,662.9663254413754L-82.39049828611314,771.8355899769813L43.900463534519076,709.5982335414737Z" fill="#8d8d8d" stroke="#8d8d8d"></path><path d="M43.900463534519076,709.5982335414737L-82.39049828611314,771.8355899769813L131.6033237054944,827.257370967418Z" fill="#878787" stroke="#878787"></path><path d="M43.900463534519076,709.5982335414737L131.6033237054944,827.257370967418L198.82983092218637,814.8395509365946Z" fill="#818181" stroke="#818181"></path><path d="M43.900463534519076,709.5982335414737L198.82983092218637,814.8395509365946L278.26025831513107,719.3041178584099Z" fill="#828282" stroke="#828282"></path><path d="M278.26025831513107,719.3041178584099L198.82983092218637,814.8395509365946L361.20526232756674,879.8277704324573Z" fill="#767676" stroke="#767676"></path><path d="M278.26025831513107,719.3041178584099L361.20526232756674,879.8277704324573L423.75265253707767,666.2901692837477Z" fill="#747474" stroke="#747474"></path><path d="M423.75265253707767,666.2901692837477L361.20526232756674,879.8277704324573L516.5965798404068,880.8384537510574Z" fill="#686868" stroke="#686868"></path><path d="M423.75265253707767,666.2901692837477L516.5965798404068,880.8384537510574L511.5146859548986,624.780449224636Z" fill="#6b6b6b" stroke="#6b6b6b"></path><path d="M511.5146859548986,624.780449224636L516.5965798404068,880.8384537510574L657.3912271857262,803.4204118978232Z" fill="#5e5e5e" stroke="#5e5e5e"></path><path d="M511.5146859548986,624.780449224636L657.3912271857262,803.4204118978232L651.7534189671278,684.0120839327574Z" fill="#5d5d5d" stroke="#5d5d5d"></path><path d="M651.7534189671278,684.0120839327574L657.3912271857262,803.4204118978232L810.6689030863345,793.197931246832Z" fill="#4d4d4d" stroke="#4d4d4d"></path><path d="M651.7534189671278,684.0120839327574L810.6689030863345,793.197931246832L846.3090669550002,655.0222072005272Z" fill="#4b4b4b" stroke="#4b4b4b"></path><path d="M846.3090669550002,655.0222072005272L810.6689030863345,793.197931246832L1000.7543004211038,791.7597366124392Z" fill="#3b3b3b" stroke="#3b3b3b"></path><path d="M846.3090669550002,655.0222072005272L1000.7543004211038,791.7597366124392L968.0251163151115,647.8936940152198Z" fill="#3a3a3a" stroke="#3a3a3a"></path><path d="M968.0251163151115,647.8936940152198L1000.7543004211038,791.7597366124392L1174.7879683133215,710.6373794004321Z" fill="#2a2a2a" stroke="#2a2a2a"></path><path d="M1174.7879683133215,710.6373794004321L1000.7543004211038,791.7597366124392L1176.725455345586,858.4024026989937Z" fill="#1b1b1b" stroke="#1b1b1b"></path><path d="M1174.7879683133215,710.6373794004321L1176.725455345586,858.4024026989937L1222.7177890297025,786.689392067492Z" fill="#121212" stroke="#121212"></path><path d="M1174.7879683133215,710.6373794004321L1222.7177890297025,786.689392067492L1241.989058693871,711.8386659119278Z" fill="#131313" stroke="#131313"></path><path d="M1241.989058693871,711.8386659119278L1222.7177890297025,786.689392067492L1447.3769165296108,858.3444363903254Z" fill="#080808" stroke="#080808"></path><path d="M1241.989058693871,711.8386659119278L1447.3769165296108,858.3444363903254L1477.9174765851349,669.6607439126819Z" fill="#0b0b0b" stroke="#0b0b0b"></path><path d="M1477.9174765851349,669.6607439126819L1447.3769165296108,858.3444363903254L1523.8510672654957,857.7094124257565Z" fill="#070707" stroke="#070707"></path><path d="M1477.9174765851349,669.6607439126819L1523.8510672654957,857.7094124257565L1600.4408099502325,687.6733454782516Z" fill="#0c0c0c" stroke="#0c0c0c"></path><path d="M1600.4408099502325,687.6733454782516L1523.8510672654957,857.7094124257565L1620.7247032038867,948.1852316390723Z" fill="#040404" stroke="#040404"></path><path d="M-82.39049828611314,771.8355899769813L-116.87616049312055,916.6681554727256L21.07791317626834,965.4299891833216Z" fill="#808080" stroke="#808080"></path><path d="M-82.39049828611314,771.8355899769813L21.07791317626834,965.4299891833216L131.6033237054944,827.257370967418Z" fill="#818181" stroke="#818181"></path><path d="M131.6033237054944,827.257370967418L21.07791317626834,965.4299891833216L177.22079811617732,1033.5083370655775Z" fill="#7b7b7b" stroke="#7b7b7b"></path><path d="M131.6033237054944,827.257370967418L177.22079811617732,1033.5083370655775L198.82983092218637,814.8395509365946Z" fill="#787878" stroke="#787878"></path><path d="M198.82983092218637,814.8395509365946L177.22079811617732,1033.5083370655775L361.20526232756674,879.8277704324573Z" fill="#727272" stroke="#727272"></path><path d="M361.20526232756674,879.8277704324573L177.22079811617732,1033.5083370655775L409.43423797376454,921.9471662677824Z" fill="#6d6d6d" stroke="#6d6d6d"></path><path d="M361.20526232756674,879.8277704324573L409.43423797376454,921.9471662677824L516.5965798404068,880.8384537510574Z" fill="#636363" stroke="#636363"></path><path d="M516.5965798404068,880.8384537510574L409.43423797376454,921.9471662677824L474.25518304109573,938.0278214905411Z" fill="#606060" stroke="#606060"></path><path d="M516.5965798404068,880.8384537510574L474.25518304109573,938.0278214905411L676.2339499220252,939.2340481560677Z" fill="#565656" stroke="#565656"></path><path d="M516.5965798404068,880.8384537510574L676.2339499220252,939.2340481560677L657.3912271857262,803.4204118978232Z" fill="#4f4f4f" stroke="#4f4f4f"></path><path d="M657.3912271857262,803.4204118978232L676.2339499220252,939.2340481560677L810.6689030863345,793.197931246832Z" fill="#464646" stroke="#464646"></path><path d="M810.6689030863345,793.197931246832L676.2339499220252,939.2340481560677L810.1159576233476,1034.6663792431355Z" fill="#3e3e3e" stroke="#3e3e3e"></path><path d="M810.6689030863345,793.197931246832L810.1159576233476,1034.6663792431355L924.6057797502726,1033.5577642545104Z" fill="#353535" stroke="#353535"></path><path d="M810.6689030863345,793.197931246832L924.6057797502726,1033.5577642545104L1000.7543004211038,791.7597366124392Z" fill="#2f2f2f" stroke="#2f2f2f"></path><path d="M1000.7543004211038,791.7597366124392L924.6057797502726,1033.5577642545104L1102.0947949402034,997.6899568643421Z" fill="#222222" stroke="#222222"></path><path d="M1000.7543004211038,791.7597366124392L1102.0947949402034,997.6899568643421L1176.725455345586,858.4024026989937Z" fill="#171717" stroke="#171717"></path><path d="M1176.725455345586,858.4024026989937L1102.0947949402034,997.6899568643421L1274.1047901380807,956.6719512082636Z" fill="#0b0b0b" stroke="#0b0b0b"></path><path d="M1176.725455345586,858.4024026989937L1274.1047901380807,956.6719512082636L1222.7177890297025,786.689392067492Z" fill="#080808" stroke="#080808"></path><path d="M1222.7177890297025,786.689392067492L1274.1047901380807,956.6719512082636L1447.3769165296108,858.3444363903254Z" fill="#010101" stroke="#010101"></path><path d="M1447.3769165296108,858.3444363903254L1274.1047901380807,956.6719512082636L1438.2683702465147,1029.5361054036766Z" fill="#000000" stroke="#000000"></path><path d="M1447.3769165296108,858.3444363903254L1438.2683702465147,1029.5361054036766L1523.8510672654957,857.7094124257565Z" fill="#000000" stroke="#000000"></path><path d="M1523.8510672654957,857.7094124257565L1438.2683702465147,1029.5361054036766L1620.7247032038867,948.1852316390723Z" fill="#000000" stroke="#000000"></path><path d="M-116.87616049312055,916.6681554727256L177.22079811617732,1033.5083370655775L21.07791317626834,965.4299891833216Z" fill="#7e7e7e" stroke="#7e7e7e"></path><path d="M177.22079811617732,1033.5083370655775L810.1159576233476,1034.6663792431355L474.25518304109573,938.0278214905411Z" fill="#5e5e5e" stroke="#5e5e5e"></path><path d="M177.22079811617732,1033.5083370655775L474.25518304109573,938.0278214905411L409.43423797376454,921.9471662677824Z" fill="#6a6a6a" stroke="#6a6a6a"></path><path d="M474.25518304109573,938.0278214905411L810.1159576233476,1034.6663792431355L676.2339499220252,939.2340481560677Z" fill="#4a4a4a" stroke="#4a4a4a"></path><path d="M810.1159576233476,1034.6663792431355L1438.2683702465147,1029.5361054036766L924.6057797502726,1033.5577642545104Z" fill="#1c1c1c" stroke="#1c1c1c"></path><path d="M924.6057797502726,1033.5577642545104L1438.2683702465147,1029.5361054036766L1102.0947949402034,997.6899568643421Z" fill="#0f0f0f" stroke="#0f0f0f"></path><path d="M1102.0947949402034,997.6899568643421L1438.2683702465147,1029.5361054036766L1274.1047901380807,956.6719512082636Z" fill="#010101" stroke="#010101"></path></g></svg>